<svg width="186" height="72" viewBox="0 0 186 72" fill="none" xmlns="http://www.w3.org/2000/svg">
<path d="M34.26 4L27.01 8.54005V31.9359L14.25 39.9908V16.7414L7 21.2815V53.4279L14.25 48.7975L34.26 36.2197V4Z" fill="white"/>
<path d="M65 21.2082L37.74 4V36.2197L45.2744 40.9062V40.9027L65 53.3547V44.5675L45.2744 32.1155V17.5434L57.75 25.4188L65 30.1785V21.2082Z" fill="white"/>
<path d="M7 57.587L36 39.5L65 57.587V66.3009L36 48.2872L7 66.3009V57.587Z" fill="white"/>
<path d="M7 57.587L36 39.5L65 57.587V66.3009L36 48.2872L7 66.3009V57.587Z" fill="white"/>
<path d="M89.518 16.5998H93.236V26.6758C93.236 27.4532 93.4414 28.0838 93.852 28.5678C94.2627 29.0518 94.8787 29.2938 95.7 29.2938C96.5214 29.2938 97.1374 29.0518 97.548 28.5678C97.9734 28.0838 98.186 27.4532 98.186 26.6758V16.5998H101.904V26.9398C101.904 28.2305 101.625 29.3012 101.068 30.1518C100.525 30.9878 99.7847 31.6112 98.846 32.0218C97.9074 32.4325 96.8587 32.6378 95.7 32.6378C94.5414 32.6378 93.4927 32.4325 92.554 32.0218C91.63 31.6112 90.8894 30.9878 90.332 30.1518C89.7894 29.3012 89.518 28.2305 89.518 26.9398V16.5998Z" fill="white"/>
<path d="M108.024 36.8398H104.702V21.8798H108.024V23.5078C108.39 22.8772 108.86 22.3932 109.432 22.0558C110.018 21.7038 110.7 21.5278 111.478 21.5278C112.299 21.5278 113.076 21.7332 113.81 22.1438C114.543 22.5398 115.137 23.1412 115.592 23.9478C116.061 24.7545 116.296 25.7518 116.296 26.9398C116.296 28.1278 116.061 29.1252 115.592 29.9318C115.137 30.7238 114.543 31.3252 113.81 31.7358C113.076 32.1465 112.299 32.3518 111.478 32.3518C110.7 32.3518 110.018 32.1832 109.432 31.8458C108.86 31.4938 108.39 31.0025 108.024 30.3718V36.8398ZM112.798 26.9398C112.798 26.1478 112.556 25.5392 112.072 25.1138C111.602 24.6885 111.038 24.4758 110.378 24.4758C110.011 24.4758 109.644 24.5712 109.278 24.7618C108.911 24.9378 108.61 25.2092 108.376 25.5758C108.141 25.9278 108.024 26.3825 108.024 26.9398C108.024 27.4825 108.141 27.9372 108.376 28.3038C108.61 28.6705 108.911 28.9492 109.278 29.1398C109.644 29.3158 110.011 29.4038 110.378 29.4038C111.038 29.4038 111.602 29.1912 112.072 28.7658C112.556 28.3405 112.798 27.7318 112.798 26.9398Z" fill="white"/>
<path d="M117.906 32.7258H121.14C121.199 33.3565 121.434 33.8258 121.844 34.1338C122.255 34.4418 122.783 34.5958 123.428 34.5958C124.132 34.5958 124.726 34.3612 125.21 33.8918C125.709 33.4225 125.958 32.7185 125.958 31.7798V30.1958C125.152 31.3692 123.993 31.9558 122.482 31.9558C121.661 31.9558 120.884 31.7652 120.15 31.3838C119.417 31.0025 118.823 30.4305 118.368 29.6678C117.914 28.8905 117.686 27.9372 117.686 26.8078C117.686 25.6638 117.914 24.7105 118.368 23.9478C118.823 23.1852 119.417 22.6132 120.15 22.2318C120.884 21.8505 121.661 21.6598 122.482 21.6598C123.993 21.6598 125.152 22.2465 125.958 23.4198V21.8798H129.148V31.7798C129.148 33.0852 128.899 34.1412 128.4 34.9478C127.902 35.7545 127.227 36.3412 126.376 36.7078C125.54 37.0745 124.609 37.2578 123.582 37.2578C122.321 37.2578 121.287 37.0672 120.48 36.6858C119.674 36.3045 119.065 35.7692 118.654 35.0798C118.244 34.4052 117.994 33.6205 117.906 32.7258ZM121.184 26.8078C121.184 27.5998 121.419 28.2085 121.888 28.6338C122.372 29.0592 122.944 29.2718 123.604 29.2718C123.986 29.2718 124.352 29.1838 124.704 29.0078C125.071 28.8172 125.372 28.5385 125.606 28.1718C125.841 27.8052 125.958 27.3505 125.958 26.8078C125.958 26.2505 125.841 25.7958 125.606 25.4438C125.372 25.0772 125.071 24.8058 124.704 24.6298C124.352 24.4392 123.986 24.3438 123.604 24.3438C122.944 24.3438 122.372 24.5565 121.888 24.9818C121.419 25.4072 121.184 26.0158 121.184 26.8078Z" fill="white"/>
<path d="M137.912 25.3338C137.736 25.1578 137.546 25.0185 137.34 24.9158C137.15 24.8132 136.908 24.7618 136.614 24.7618C136.13 24.7618 135.734 24.9525 135.426 25.3338C135.133 25.7152 134.986 26.2725 134.986 27.0058V31.9998H131.708V21.8798H134.986V23.1558C135.309 22.6865 135.69 22.3198 136.13 22.0558C136.585 21.7772 137.054 21.6378 137.538 21.6378C137.905 21.6378 138.257 21.7185 138.594 21.8798C138.932 22.0265 139.188 22.2245 139.364 22.4738L137.912 25.3338Z" fill="white"/>
<path d="M141.853 24.9818L140.731 22.7598C141.318 22.4812 142.007 22.2172 142.799 21.9678C143.606 21.7185 144.486 21.5938 145.439 21.5938C146.334 21.5938 147.133 21.7258 147.837 21.9898C148.541 22.2392 149.098 22.6058 149.509 23.0898C149.92 23.5738 150.125 24.1678 150.125 24.8718V31.9998H146.935V30.6138C146.627 31.1418 146.165 31.5452 145.549 31.8238C144.948 32.0878 144.295 32.2198 143.591 32.2198C142.946 32.2198 142.344 32.1025 141.787 31.8678C141.244 31.6185 140.804 31.2518 140.467 30.7678C140.144 30.2838 139.983 29.6972 139.983 29.0078C139.983 28.0398 140.32 27.2772 140.995 26.7198C141.684 26.1478 142.667 25.8618 143.943 25.8618C144.559 25.8618 145.124 25.9278 145.637 26.0598C146.15 26.1772 146.583 26.3238 146.935 26.4998V25.6198C146.935 24.6225 146.297 24.1238 145.021 24.1238C144.581 24.1238 144.141 24.1752 143.701 24.2778C143.261 24.3805 142.872 24.5052 142.535 24.6518C142.212 24.7838 141.985 24.8938 141.853 24.9818ZM143.349 28.8318C143.349 29.2278 143.481 29.5358 143.745 29.7558C144.024 29.9612 144.368 30.0638 144.779 30.0638C145.322 30.0638 145.806 29.9025 146.231 29.5798C146.656 29.2425 146.891 28.7438 146.935 28.0838C146.334 27.8198 145.681 27.6878 144.977 27.6878C144.39 27.6878 143.972 27.7905 143.723 27.9958C143.474 28.1865 143.349 28.4652 143.349 28.8318Z" fill="white"/>
<path d="M152.019 26.9398C152.019 25.7958 152.246 24.8352 152.701 24.0578C153.155 23.2658 153.749 22.6718 154.482 22.2758C155.216 21.8652 155.993 21.6598 156.814 21.6598C158.311 21.6598 159.469 22.2758 160.29 23.5078V14.8398H163.613V31.9998H160.29V30.3718C159.469 31.6038 158.311 32.2198 156.814 32.2198C155.993 32.2198 155.216 32.0218 154.482 31.6258C153.749 31.2152 153.155 30.6138 152.701 29.8218C152.246 29.0298 152.019 28.0692 152.019 26.9398ZM155.517 26.9398C155.517 27.7318 155.751 28.3625 156.22 28.8318C156.704 29.3012 157.276 29.5358 157.937 29.5358C158.318 29.5358 158.685 29.4332 159.036 29.2278C159.403 29.0225 159.704 28.7292 159.938 28.3478C160.173 27.9518 160.29 27.4825 160.29 26.9398C160.29 26.3825 160.173 25.9132 159.938 25.5318C159.704 25.1505 159.403 24.8572 159.036 24.6518C158.685 24.4465 158.318 24.3438 157.937 24.3438C157.276 24.3438 156.704 24.5785 156.22 25.0478C155.751 25.5172 155.517 26.1478 155.517 26.9398Z" fill="white"/>
<path d="M171.339 32.2198C170.151 32.2198 169.124 32.0072 168.259 31.5818C167.408 31.1418 166.748 30.5258 166.279 29.7338C165.81 28.9418 165.575 28.0105 165.575 26.9398C165.575 25.2972 166.081 24.0065 167.093 23.0678C168.105 22.1292 169.498 21.6598 171.273 21.6598C173.018 21.6598 174.36 22.1072 175.299 23.0018C176.252 23.8965 176.729 25.1578 176.729 26.7858C176.729 26.9472 176.729 27.1012 176.729 27.2478C176.729 27.3945 176.722 27.5265 176.707 27.6438H168.985C169.073 28.3332 169.315 28.8685 169.711 29.2498C170.107 29.6312 170.628 29.8218 171.273 29.8218C172.446 29.8218 173.282 29.3818 173.781 28.5018L176.773 29.2278C175.702 31.2225 173.891 32.2198 171.339 32.2198ZM171.207 23.8818C170.004 23.8818 169.278 24.5198 169.029 25.7958H173.165C173.106 25.2092 172.901 24.7472 172.549 24.4098C172.212 24.0578 171.764 23.8818 171.207 23.8818Z" fill="white"/>
<path d="M92.818 48.2998C92.818 49.2385 93.0234 50.0452 93.434 50.7198C93.8594 51.3945 94.424 51.9152 95.128 52.2818C95.832 52.6338 96.5947 52.8098 97.416 52.8098C98.5014 52.8098 99.4107 52.6045 100.144 52.1938C100.892 51.7832 101.515 51.3065 102.014 50.7638V54.8118C101.398 55.2812 100.723 55.6552 99.99 55.9338C99.2567 56.2125 98.3254 56.3518 97.196 56.3518C95.5534 56.3518 94.094 56.0145 92.818 55.3398C91.542 54.6652 90.5447 53.7265 89.826 52.5238C89.1074 51.3065 88.748 49.8985 88.748 48.2998C88.748 46.7012 89.1074 45.3005 89.826 44.0978C90.5447 42.8805 91.542 41.9345 92.818 41.2598C94.094 40.5852 95.5534 40.2478 97.196 40.2478C98.3254 40.2478 99.2567 40.3872 99.99 40.6658C100.723 40.9445 101.398 41.3185 102.014 41.7878V45.8358C101.515 45.2785 100.892 44.8018 100.144 44.4058C99.4107 43.9952 98.5014 43.7898 97.416 43.7898C96.5947 43.7898 95.832 43.9732 95.128 44.3398C94.424 44.6918 93.8594 45.2052 93.434 45.8798C93.0234 46.5398 92.818 47.3465 92.818 48.2998Z" fill="white"/>
<path d="M104.108 50.9398C104.108 49.8692 104.358 48.9378 104.856 48.1458C105.37 47.3538 106.059 46.7378 106.924 46.2978C107.804 45.8578 108.794 45.6378 109.894 45.6378C111.009 45.6378 111.999 45.8578 112.864 46.2978C113.73 46.7378 114.412 47.3538 114.91 48.1458C115.424 48.9378 115.68 49.8692 115.68 50.9398C115.68 51.9958 115.424 52.9198 114.91 53.7118C114.412 54.5038 113.73 55.1198 112.864 55.5598C111.999 55.9998 111.009 56.2198 109.894 56.2198C108.794 56.2198 107.804 55.9998 106.924 55.5598C106.059 55.1198 105.37 54.5038 104.856 53.7118C104.358 52.9198 104.108 51.9958 104.108 50.9398ZM107.54 50.9398C107.54 51.7172 107.768 52.3332 108.222 52.7878C108.692 53.2425 109.249 53.4698 109.894 53.4698C110.54 53.4698 111.09 53.2425 111.544 52.7878C112.014 52.3332 112.248 51.7172 112.248 50.9398C112.248 50.1625 112.014 49.5465 111.544 49.0918C111.09 48.6225 110.54 48.3878 109.894 48.3878C109.249 48.3878 108.692 48.6225 108.222 49.0918C107.768 49.5465 107.54 50.1625 107.54 50.9398Z" fill="white"/>
<path d="M124.235 49.8398C124.235 49.2385 124.125 48.7838 123.905 48.4758C123.685 48.1532 123.304 47.9918 122.761 47.9918C122.233 47.9918 121.808 48.1532 121.485 48.4758C121.163 48.7838 121.001 49.2385 121.001 49.8398V55.9998H117.657V45.8798H121.001V47.3978C121.295 46.8405 121.691 46.4078 122.189 46.0998C122.703 45.7918 123.333 45.6378 124.081 45.6378C125.343 45.6378 126.259 45.9752 126.831 46.6498C127.418 47.3245 127.711 48.2705 127.711 49.4878V55.9998H124.235V49.8398Z" fill="white"/>
<path d="M130.862 52.3258C131.639 52.9712 132.299 53.4112 132.842 53.6458C133.399 53.8658 133.854 53.9758 134.206 53.9758C134.866 53.9758 135.196 53.7118 135.196 53.1838C135.196 52.8612 135.042 52.6045 134.734 52.4138C134.426 52.2085 133.861 51.9738 133.04 51.7098C132.57 51.5485 132.116 51.3432 131.676 51.0938C131.236 50.8445 130.876 50.5145 130.598 50.1038C130.319 49.6932 130.18 49.1652 130.18 48.5198C130.18 47.5958 130.539 46.8918 131.258 46.4078C131.976 45.9092 132.878 45.6598 133.964 45.6598C134.829 45.6598 135.621 45.8065 136.34 46.0998C137.058 46.3785 137.711 46.7305 138.298 47.1558L137.11 49.3338C136.699 48.9378 136.215 48.6078 135.658 48.3438C135.115 48.0798 134.616 47.9478 134.162 47.9478C133.868 47.9478 133.641 48.0065 133.48 48.1238C133.333 48.2412 133.26 48.3952 133.26 48.5858C133.26 48.9232 133.458 49.1725 133.854 49.3338C134.264 49.4952 134.844 49.7225 135.592 50.0158C136.12 50.2065 136.604 50.4265 137.044 50.6758C137.484 50.9252 137.836 51.2405 138.1 51.6218C138.378 52.0032 138.518 52.5092 138.518 53.1398C138.518 54.2105 138.188 55.0245 137.528 55.5818C136.868 56.1392 135.929 56.4178 134.712 56.4178C133.612 56.4178 132.636 56.2418 131.786 55.8898C130.935 55.5232 130.165 55.0685 129.476 54.5258L130.862 52.3258Z" fill="white"/>
<path d="M143.843 52.0398C143.843 52.6265 143.946 53.0812 144.151 53.4038C144.371 53.7265 144.752 53.8878 145.295 53.8878C145.823 53.8878 146.248 53.7265 146.571 53.4038C146.894 53.0812 147.055 52.6265 147.055 52.0398V45.8798H150.399V55.9998H147.055V54.4818C146.762 55.0245 146.358 55.4572 145.845 55.7798C145.346 56.0878 144.723 56.2418 143.975 56.2418C142.728 56.2418 141.812 55.9045 141.225 55.2298C140.638 54.5405 140.345 53.5945 140.345 52.3918V45.8798H143.843V52.0398Z" fill="white"/>
<path d="M152.999 38.8398H156.343V55.9998H152.999V38.8398Z" fill="white"/>
<path d="M157.741 45.8798H159.523V42.3598H162.735V45.8798H164.517V48.6298H162.735V55.9998H159.523V48.6298H157.741V45.8798Z" fill="white"/>
</svg>
